<svg xmlns:dc="http://purl.org/dc/elements/1.1/" xmlns:cc="http://creativecommons.org/ns#" xmlns:rdf="http://www.w3.org/1999/02/22-rdf-syntax-ns#" xmlns:svg="http://www.w3.org/2000/svg" xmlns="http://www.w3.org/2000/svg" xmlns:sodipodi="http://sodipodi.sourceforge.net/DTD/sodipodi-0.dtd" xmlns:inkscape="http://www.inkscape.org/namespaces/inkscape" inkscape:version="1.0 (4035a4fb49, 2020-05-01)" sodipodi:docname="Pfeil.svg" version="1.1" height="247.99999" width="76.932003" style="isolation:isolate"><rect id="backgroundrect" width="100%" height="100%" x="0" y="0" fill="none" stroke="none"/>
  <metadata id="metadata507">
    <rdf:RDF>
      <cc:Work rdf:about="">
        <dc:format>image/svg+xml</dc:format>
        <dc:type rdf:resource="http://purl.org/dc/dcmitype/StillImage"/>
      </cc:Work>
    </rdf:RDF>
  </metadata>
  <sodipodi:namedview inkscape:current-layer="svg503" inkscape:window-maximized="0" inkscape:window-y="0" inkscape:window-x="0" inkscape:cy="245.33333" inkscape:cx="102.57599" inkscape:zoom="0.62426794" showgrid="false" id="namedview505" inkscape:window-height="480" inkscape:window-width="717" inkscape:pageshadow="2" inkscape:pageopacity="0" guidetolerance="10" gridtolerance="10" objecttolerance="10" borderopacity="1" bordercolor="#666666" pagecolor="#ffffff"/>
  <defs id="defs495">
    <clipPath id="a">
      <path id="path492" d="M 0,0 H 1366 V 768 H 0 Z"/>
    </clipPath>
  </defs>
  
<g class="currentLayer" style=""><title>Layer 1</title><g id="g501" fill-rule="evenodd" clip-path="url(#a)" class="selected" fill="#ffffff" fill-opacity="1">
    <path id="path497" fill="#ffffff" d="m53.46600683593749,69.45499999999998 l23.452,0.522 l-18.515,-34.989 l-18.515,-34.988 l-19.944,34.132 l-19.944,34.133 l23.466,0.522 V178.72000000000003 l-23.466,-0.22900000000000004 l18.92,34.755 l18.92,34.754 l19.546,-34.379 l19.546,-34.38 l-23.466,-0.22800000000000004 z" fill-opacity="1"/>
    <path id="path499" d="m53.46600683593749,69.45499999999998 l23.452,0.522 l-18.515,-34.989 l-18.515,-34.988 l-19.944,34.132 l-19.944,34.133 l23.466,0.522 V178.72000000000003 l-23.466,-0.22900000000000004 l18.92,34.755 l18.92,34.754 l19.546,-34.379 l19.546,-34.38 l-23.466,-0.22800000000000004 z" fill="#ffffff" fill-opacity="1"/>
  </g></g></svg>